<svg xmlns="http://www.w3.org/2000/svg" xmlns:xlink="http://www.w3.org/1999/xlink" width="80" height="80" viewBox="0 0 80 80">
  <defs>
    <clipPath id="clip-path">
      <rect id="Rectangle_398" data-name="Rectangle 398" width="48" height="48" fill="none"/>
    </clipPath>
  </defs>
  <g id="ButtonHome" transform="translate(-175 -776)">
    <g id="Box" transform="translate(175 776)" fill="#f0f0f0" stroke="#1d1d1d" stroke-width="8">
      <rect width="80" height="80" rx="8" stroke="none"/>
      <rect x="4" y="4" width="72" height="72" rx="4" fill="none"/>
    </g>
    <g id="Eye" transform="translate(215 816)">
      <g id="Group_327" data-name="Group 327" transform="translate(-24 -24)" clip-path="url(#clip-path)">
        <path id="Path_1488" data-name="Path 1488" d="M3.4,22.1l-.4.3,1.3-1.3a16.8,16.8,0,0,1,2-1.9l2.3-1.5,2-1,2.6-.9,3.4-1,2.9-.4h2.2l1.9.4,1.8.6,1.5.7,2.5,1.2,3.9,2.2,3.1,1.9L38.7,23l3,2,2.7,1.2,1.7.6" fill="none" stroke="#eb5a00" stroke-linecap="round" stroke-linejoin="round" stroke-width="2.53"/>
        <path id="Path_1489" data-name="Path 1489" d="M2,23.3v-.2q.2-.3,1.5,1.2l2.4,2.6,1.7,1.6,1.1.8,1.2.8,2.4,1.1,2.7.9,2,.6,2.8.6,4,.2h3.5a14.7,14.7,0,0,0,3-.4l2.6-.6,3-1.1A25.9,25.9,0,0,0,41.1,28l3.6-2.8" fill="none" stroke="#eb5a00" stroke-linecap="round" stroke-linejoin="round" stroke-width="2.93"/>
        <path id="Path_1490" data-name="Path 1490" d="M23.1,17H20.6l-.7.2-.7.5-.7.6-.6.8-.6,1.2a6.8,6.8,0,0,0-.4,1.2,5.6,5.6,0,0,0-.2,1.3,10.7,10.7,0,0,0,0,1.2v1a6.8,6.8,0,0,0,.2.9,4.6,4.6,0,0,0,.4,1l.6,1,.7.8.9.5,1.1.3h1.2l1.2-.2.9-.2.6-.3.4-.2.6-.4.9-1,.8-1.3.5-1,.3-.8a4.8,4.8,0,0,0,.2-1,2.7,2.7,0,0,0,0-1,3.3,3.3,0,0,0-.4-1l-.6-.9-.9-.8-1.1-.7-1-.4-1.3-.2h-1" fill="none" stroke="#eb5a00" stroke-linecap="round" stroke-linejoin="round" stroke-width="3.93"/>
        <path id="Path_1491" data-name="Path 1491" d="M21.2,22.8h-.1V21.5l-.3-.3-.4-.2H20l-.4.5-.3.7a2.2,2.2,0,0,0-.1.7,2.9,2.9,0,0,0,.1.8l.2.6.3.4.5.2a1.2,1.2,0,0,0,.7-.4l.8-.9.5-1,.3-.7a1.6,1.6,0,0,0,.1-.6.7.7,0,0,0-.3-.5l-.6-.3H21l-.7.3-.4.4-.4.7a2.2,2.2,0,0,0-.1.9,2.8,2.8,0,0,0,.2.8l.3.5.3.2H21l.5-.4.6-.7.3-.7.2-.5a1.3,1.3,0,0,0,0-.5v-.4l-.2-.3H22l-.4.4-.5.7-.3.6a.9.9,0,0,0,0,.5l.2.3.3.2h.4l.5-.2.3-.3h0v-.1h-.2l-.4.3a2.6,2.6,0,0,0-.7,1.2h.5l.4-.2.5-.4.3-.4c.1-.1.1-.3-.1-.6l-.3-.6-.3-.4-.3-.2h-.4c-.2,0-.3,0-.5.3h.5l.3-.3.2-.3V21a1.4,1.4,0,0,0,0-.3V20h-.6l-.5-.3-.2-.2h-.8v.6a.2.2,0,0,1,0,.1h0a1.2,1.2,0,0,1,0,.2,3.8,3.8,0,0,1-.1.7v.8a1.4,1.4,0,0,0,0,.4v.2h0a.7.7,0,0,1,0,.2v.2h0v-.2a4,4,0,0,0-.2-1l-.2-.5-.2-.3-.4-.2h-.1a1.3,1.3,0,0,0,0,.3h.2v.3l.2.4v.4a2.5,2.5,0,0,1,0,.5,2.6,2.6,0,0,0,.1.8l.2.7.2.6V25l.2.3.2.4.3.4.3.2H21l.9-.5.9-.6" fill="none" stroke="#eb5a00" stroke-linecap="round" stroke-linejoin="round" stroke-width="3.17"/>
        <path id="Path_1492" data-name="Path 1492" d="M22.2,25.3H22" fill="none" stroke="#eaeaea" stroke-linecap="round" stroke-linejoin="round" stroke-width="1.53"/>
        <path id="Path_1493" data-name="Path 1493" d="M24.4,21.4H24v-.2h-.9l-.4.3-.3.5-.2.6a1.2,1.2,0,0,0,0,.4l.2.3h.9l.3-.2.4-.2.3-.3a.5.5,0,0,0,.1-.3V22H23l-.5.5-.3.5a1.1,1.1,0,0,0,0,.4.4.4,0,0,0,.2.3h1.3l.6-.4.3-.5a.6.6,0,0,0,0-.5l-.2-.4-.4-.3-.4-.2h-.4l-.4.4v.3a.7.7,0,0,0,0,.2l.2.3.3.3h.5l.4-.4.3-.4" fill="#eb9c00"/>
        <path id="Path_1494" data-name="Path 1494" d="M24.4,21.4H24v-.2h-.9l-.4.3-.3.5-.2.6a1.2,1.2,0,0,0,0,.4l.2.3h.9l.3-.2.4-.2.3-.3a.5.5,0,0,0,.1-.3V22H23l-.5.5-.3.5a1.1,1.1,0,0,0,0,.4.4.4,0,0,0,.2.3h1.3l.6-.4.3-.5a.6.6,0,0,0,0-.5l-.2-.4-.4-.3-.4-.2h-.4l-.4.4v.3a.7.7,0,0,0,0,.2l.2.3.3.3h.5l.4-.4.3-.4" fill="none" stroke="#eaeaea" stroke-linecap="round" stroke-linejoin="round" stroke-width="1.56"/>
        <path id="Path_1495" data-name="Path 1495" d="M2.6,23.2h0l.4-.5.7-.8.6-.6.5-.4.4-.3.4-.3.6-.5.7-.5.6-.4.6-.4.7-.4,1.3-.5,1.7-.5,1.6-.5,1.3-.3.8-.2.7-.2h8.2l1.4.2,1.3.2.8.2.6.2.5.2.8.5,1,.6.8.5.8.5.9.7.9.7.8.7.8.7.7.5.6.4.6.4,1.2.7,1.3.7,1.1.5.9.4.9.3,1.3.2h.9" fill="none" stroke="#eb9c00" stroke-linecap="round" stroke-linejoin="round" stroke-width="3.39"/>
        <path id="Path_1496" data-name="Path 1496" d="M2.9,23.6H3q.1-.1.6.2l.8.5.4.3.5.4.6.5.4.5.6,1,.6,1.2.3.7.4.5,1,.7,1.2.6.8.3,1.2.3,2.1.5,2,.4,1.2.2h6.8l1.9-.3,2.1-.4,1.3-.3.8-.2h.5l.8-.3.9-.4.8-.4.8-.4.7-.3.7-.3.7-.3.7-.3h.7l.4-.2,1.2-.4,2.1-.8,1.1-.4" fill="none" stroke="#eb9c00" stroke-linecap="round" stroke-linejoin="round" stroke-width="3.53"/>
      </g>
    </g>
    <g id="Eye-2" data-name="Eye" transform="translate(215 816)">
      <g id="Group_246" data-name="Group 246" transform="translate(-24 -24)" clip-path="url(#clip-path)">
        <path id="Path_1028" data-name="Path 1028" d="M3.4,22.1l-.4.3,1.3-1.3a16.8,16.8,0,0,1,2-1.9l2.3-1.5,2-1,2.6-.9,3.4-1,2.9-.4h2.2l1.9.4,1.8.6,1.5.7,2.5,1.2,3.9,2.2,3.1,1.9L38.7,23l3,2,2.7,1.2,1.7.6" fill="none" stroke="#1d1d1d" stroke-linecap="round" stroke-linejoin="round" stroke-width="2.53"/>
        <path id="Path_1029" data-name="Path 1029" d="M2,23.3v-.2q.2-.3,1.5,1.2l2.4,2.6,1.7,1.6,1.1.8,1.2.8,2.4,1.1,2.7.9,2,.6,2.8.6,4,.2h3.5a14.7,14.7,0,0,0,3-.4l2.6-.6,3-1.1A25.9,25.9,0,0,0,41.1,28l3.6-2.8" fill="none" stroke="#1d1d1d" stroke-linecap="round" stroke-linejoin="round" stroke-width="2.93"/>
        <path id="Path_1030" data-name="Path 1030" d="M23.1,17H20.6l-.7.2-.7.5-.7.6-.6.8-.6,1.2a6.7,6.7,0,0,0-.4,1.2,5.6,5.6,0,0,0-.2,1.3,10.7,10.7,0,0,0,0,1.2v1a7,7,0,0,0,.2.9,4.6,4.6,0,0,0,.4,1l.6,1,.7.8.9.5,1.1.3h1.2l1.2-.2.9-.2.6-.3.4-.2.6-.4.9-1,.8-1.3.5-1,.3-.8a4.8,4.8,0,0,0,.2-1,2.7,2.7,0,0,0,0-1,3.3,3.3,0,0,0-.4-1l-.6-.9-.9-.8-1.1-.7-1-.4-1.3-.2h-1" fill="none" stroke="#1d1d1d" stroke-linecap="round" stroke-linejoin="round" stroke-width="3.93"/>
        <path id="Path_1031" data-name="Path 1031" d="M21.2,22.8h-.1V21.5l-.3-.3-.4-.2H20l-.4.5-.3.7a2.2,2.2,0,0,0-.1.7,2.9,2.9,0,0,0,.1.8l.2.6.3.4.5.2a1.2,1.2,0,0,0,.7-.4l.8-.9.5-1,.3-.7a1.6,1.6,0,0,0,.1-.6.7.7,0,0,0-.3-.5l-.6-.3H21l-.7.3-.4.4-.4.7a2.2,2.2,0,0,0-.1.9,2.7,2.7,0,0,0,.2.8l.3.5.3.2H21l.5-.4.5-.7.3-.7.2-.5a1.3,1.3,0,0,0,0-.5v-.4l-.2-.3H22l-.4.4-.5.7-.3.6a.9.9,0,0,0,0,.5l.2.3.3.2h.4l.5-.2.3-.3h0v-.1h-.2l-.4.3a2.6,2.6,0,0,0-.7,1.2h.5l.4-.2.5-.4.3-.4c.1-.1.1-.3-.1-.6l-.3-.6-.3-.4-.3-.2h-.4c-.2,0-.3,0-.5.3h.5l.3-.3.2-.3V21a1.4,1.4,0,0,0,0-.3V20h-.6l-.5-.3-.2-.2h-.8v.6a.2.2,0,0,1,0,.1h0a1.2,1.2,0,0,1,0,.2,3.9,3.9,0,0,1-.1.7v.8a1.4,1.4,0,0,0,0,.4v.2h0a.7.7,0,0,1,0,.2v.2h0v-.2a4,4,0,0,0-.2-1l-.2-.5-.2-.3-.4-.2h-.1a1.3,1.3,0,0,0,0,.3h.2v.3l.2.4v.4a2.7,2.7,0,0,1,0,.5,2.6,2.6,0,0,0,.1.8l.2.7.2.6V25l.2.3.2.4.3.4.3.2H21l.9-.5.9-.6" fill="none" stroke="#1d1d1d" stroke-linecap="round" stroke-linejoin="round" stroke-width="3.17"/>
        <path id="Path_1032" data-name="Path 1032" d="M22.2,25.3H22" fill="none" stroke="#eaeaea" stroke-linecap="round" stroke-linejoin="round" stroke-width="1.53"/>
        <path id="Path_1033" data-name="Path 1033" d="M24.4,21.4H24v-.2h-.9l-.4.3-.3.5-.2.6a1.2,1.2,0,0,0,0,.4l.2.3h.9l.3-.2.4-.2.3-.3a.6.6,0,0,0,.1-.3V22H23l-.5.5-.3.5a1.1,1.1,0,0,0,0,.4.4.4,0,0,0,.2.3h1.3l.6-.4.3-.5a.6.6,0,0,0,0-.5l-.2-.4-.4-.3-.4-.2h-.4l-.4.4v.3a.6.6,0,0,0,0,.2l.2.3.3.3h.5l.4-.4.3-.4" fill="none" stroke="#eaeaea" stroke-linecap="round" stroke-linejoin="round" stroke-width="1.56"/>
        <path id="Path_1034" data-name="Path 1034" d="M2.6,23.2h0l.4-.5.7-.8.6-.6.5-.4.4-.3.4-.3.6-.5.7-.5.6-.4.6-.4.7-.4,1.3-.5,1.7-.5,1.6-.5,1.3-.3.8-.2.7-.2h8.2l1.4.2,1.3.2.8.2.6.2.5.2.8.5,1,.6.8.5.8.5.9.7.9.7.8.7.8.7.7.5.6.4.6.4,1.2.7,1.3.7,1.1.5.9.4.9.3,1.3.2h.9" fill="none" stroke="#1d1d1d" stroke-linecap="round" stroke-linejoin="round" stroke-width="3.39"/>
        <path id="Path_1035" data-name="Path 1035" d="M2.9,23.6H3c.1-.1.3,0,.6.2l.8.5.4.3.5.4.6.5.4.5.6,1,.6,1.2.3.7.4.5,1.1.7,1.2.6.8.3,1.2.3,2.1.5,2,.4,1.2.2h6.8l1.9-.3,2.1-.4,1.3-.3.8-.2h.5l.8-.3.9-.4.8-.4.8-.4.7-.3.7-.3.7-.3.7-.3H38l.4-.2,1.2-.4,2.1-.8,1.1-.4" fill="none" stroke="#1d1d1d" stroke-linecap="round" stroke-linejoin="round" stroke-width="3.53"/>
      </g>
    </g>
  </g>
</svg>
