<svg xmlns="http://www.w3.org/2000/svg" xmlns:xlink="http://www.w3.org/1999/xlink" width="80" height="80" viewBox="0 0 80 80">
  <defs>
    <clipPath id="clip-path">
      <rect id="Rectangle_449" data-name="Rectangle 449" width="48" height="48" fill="none"/>
    </clipPath>
  </defs>
  <g id="ButtonPodium" transform="translate(-295 -776)">
    <g id="box" transform="translate(295 776)" fill="#f0f0f0" stroke="#1d1d1d" stroke-width="8">
      <rect width="80" height="80" rx="8" stroke="none"/>
      <rect x="4" y="4" width="72" height="72" rx="4" fill="none"/>
    </g>
    <g id="Leaderboard" transform="translate(335 816)">
      <g id="Group_378" data-name="Group 378" transform="translate(-24 -24)" clip-path="url(#clip-path)">
        <path id="Path_1866" data-name="Path 1866" d="M2.2,37.2v.2a1.2,1.2,0,0,0,.3.6q.3.4,2.4.1l4.6-.6,4.2-.5H24.4l3.3-.3,4-.6,3.8-.4a7,7,0,0,1,2.5.2l1.1.5" fill="none" stroke="#171612" stroke-linecap="round" stroke-linejoin="round" stroke-width="2.93"/>
        <path id="Path_1867" data-name="Path 1867" d="M2.4,36.4c.1.1.1.1,0,.1l-.5.2q-.3-.3-.1-3.2l.3-4.8a8.7,8.7,0,0,0-.5-3.6q-.1,0-.1.7t2.4-.3l3.6-1.1a12.2,12.2,0,0,1,3.6-.6,66.6,66.6,0,0,0,7.2-.8H16.8l-.5-.2h-.2v-.2a21.6,21.6,0,0,1-.2-2.6l-.2-3.5q-.1-1.1-.2-2.5a3,3,0,0,0-1.1-2.1v.7h.4q.4.2,3.2-.5L22.3,11l3-.7,1.9-.4,1.1-.2a.619.619,0,0,1,.7.2,5.9,5.9,0,0,1,.4,1.6,22.3,22.3,0,0,0,.6,2.6q.739,4.772,1,9.6l-.7-.2q-.2-.3,3.2-.4H44.2v4.5c0,3,.1,5.3.2,6.8a21.6,21.6,0,0,0,.2,2.4" fill="none" stroke="#171612" stroke-linecap="round" stroke-linejoin="round" stroke-width="3"/>
        <path id="Path_1868" data-name="Path 1868" d="M39,37.3h0l.2.3h4.9a2.8,2.8,0,0,0,1.7-.4l.7-.6" fill="none" stroke="#171612" stroke-linecap="round" stroke-linejoin="round" stroke-width="2"/>
        <path id="Path_1869" data-name="Path 1869" d="M32,24.1q-.9.1-.7,2.5t.3,4a24.261,24.261,0,0,1,.2,3,11.3,11.3,0,0,0,.3,2.1,2.1,2.1,0,0,0,.3.7" fill="none" stroke="#171612" stroke-linecap="round" stroke-linejoin="round" stroke-width="2"/>
        <path id="Path_1870" data-name="Path 1870" d="M16.6,27.3a8,8,0,0,1,.2-3.4q.5-.3.6,2.8t.1,5.1a10.6,10.6,0,0,0,.3,3,4.1,4.1,0,0,0,.4,1" fill="none" stroke="#171612" stroke-linecap="round" stroke-linejoin="round" stroke-width="2"/>
        <path id="Path_1871" data-name="Path 1871" d="M21.4,18.8h0v-.2l.3-.4.3-.5.5-.4q.4.1.2,1.9L22.5,21" fill="none" stroke="#171612" stroke-linecap="round" stroke-linejoin="round" stroke-width="1.09"/>
        <path id="Path_1872" data-name="Path 1872" d="M36.9,27.9q.1-.3,1-.4v.3a1.6,1.6,0,0,1-.3.8l-.4.6-.2.3a.2.2,0,0,0,0,.2h1.5" fill="none" stroke="#171612" stroke-linecap="round" stroke-linejoin="round" stroke-width="1.06"/>
        <path id="Path_1873" data-name="Path 1873" d="M8.9,28.2l-.4.2a.31.31,0,0,1,.1-.2l.3-.2h.5q.3,0,.4.4a3.4,3.4,0,0,1,.1.7,2.1,2.1,0,0,1-.1.5q-.1.3-.8.7v-.1h.8c.2,0,.3.2.4.5a2.2,2.2,0,0,1,.1.7,2.3,2.3,0,0,1-.2.7,1.2,1.2,0,0,1-.7.6l-.6.3" fill="none" stroke="#171612" stroke-linecap="round" stroke-linejoin="round" stroke-width="1.11"/>
      </g>
    </g>
    <g id="Leaderboard-Focus" transform="translate(335 816)" opacity="0">
      <g id="Group_379" data-name="Group 379" transform="translate(-24 -24)" clip-path="url(#clip-path)">
        <path id="Path_1874" data-name="Path 1874" d="M2.2,37.2v.2a1.2,1.2,0,0,0,.3.6q.3.4,2.4.1l4.6-.6,4.2-.5H24.4l3.3-.3,4-.6,3.8-.4a7,7,0,0,1,2.5.2l1.1.5" fill="none" stroke="#eb9c00" stroke-linecap="round" stroke-linejoin="round" stroke-width="2.93"/>
        <path id="Path_1875" data-name="Path 1875" d="M2.4,36.4c.1.1.1.1,0,.1l-.5.2q-.3-.3-.1-3.2l.3-4.8a8.7,8.7,0,0,0-.5-3.6c-.1,0-.1.3-.1.7s1,.1,2.4-.3l3.6-1.1a12.2,12.2,0,0,1,3.6-.6,66.6,66.6,0,0,0,7.2-.8H16.8l-.5-.2h-.2v-.2a22,22,0,0,1-.2-2.6l-.2-3.5q-.1-1.1-.2-2.5a3,3,0,0,0-1.1-2.1v.7h.4q.4.2,3.2-.5L22.3,11l3-.7,1.9-.4,1.1-.2a.619.619,0,0,1,.7.2,5.8,5.8,0,0,1,.4,1.6,22.3,22.3,0,0,0,.6,2.6q.739,4.772,1,9.6l-.7-.2q-.2-.3,3.2-.4H44.2v4.5c0,3,.1,5.3.2,6.8a21.6,21.6,0,0,0,.2,2.4" fill="none" stroke="#eb9c00" stroke-linecap="round" stroke-linejoin="round" stroke-width="3"/>
        <path id="Path_1876" data-name="Path 1876" d="M39,37.3h0l.2.3h4.9a2.8,2.8,0,0,0,1.7-.4l.7-.6" fill="none" stroke="#eb9c00" stroke-linecap="round" stroke-linejoin="round" stroke-width="2"/>
        <path id="Path_1877" data-name="Path 1877" d="M32,24.1q-.9.1-.7,2.5t.3,4a24.261,24.261,0,0,1,.2,3,11.3,11.3,0,0,0,.3,2.1,2,2,0,0,0,.3.7" fill="none" stroke="#eb9c00" stroke-linecap="round" stroke-linejoin="round" stroke-width="2"/>
        <path id="Path_1878" data-name="Path 1878" d="M16.6,27.3a8,8,0,0,1,.2-3.4q.5-.3.6,2.8t.1,5.1a10.6,10.6,0,0,0,.3,3,4.1,4.1,0,0,0,.4,1" fill="none" stroke="#eb9c00" stroke-linecap="round" stroke-linejoin="round" stroke-width="2"/>
        <path id="Path_1879" data-name="Path 1879" d="M21.4,18.8h0v-.2l.3-.4.3-.5.5-.4q.4.1.2,1.9L22.5,21" fill="none" stroke="#eb5a00" stroke-linecap="round" stroke-linejoin="round" stroke-width="1.09"/>
        <path id="Path_1880" data-name="Path 1880" d="M36.9,27.9c0-.2.4-.3,1-.4s0,0,0,.3a1.7,1.7,0,0,1-.3.8l-.4.6-.2.3a.2.2,0,0,0,0,.2h1.5" fill="none" stroke="#eb5a00" stroke-linecap="round" stroke-linejoin="round" stroke-width="1.06"/>
        <path id="Path_1881" data-name="Path 1881" d="M8.9,28.2l-.4.2a.31.31,0,0,1,.1-.2l.3-.2h.5q.3,0,.4.4a3.5,3.5,0,0,1,.1.7,2.1,2.1,0,0,1-.1.5q-.1.3-.8.7v-.1h.8c.2,0,.3.2.4.5a2.2,2.2,0,0,1,.1.7,2.3,2.3,0,0,1-.2.7,1.2,1.2,0,0,1-.7.6l-.6.3" fill="none" stroke="#eb5a00" stroke-linecap="round" stroke-linejoin="round" stroke-width="1.11"/>
      </g>
    </g>
  </g>
</svg>
