<svg xmlns="http://www.w3.org/2000/svg" xmlns:xlink="http://www.w3.org/1999/xlink" width="80" height="80" viewBox="0 0 80 80">
  <defs>
    <clipPath id="clip-path">
      <rect id="Rectangle_335" data-name="Rectangle 335" width="48" height="48" fill="none"/>
    </clipPath>
  </defs>
  <g id="ButtonProfil" transform="translate(-39 -776)">
    <g id="Box" transform="translate(39 776)" fill="#f0f0f0" stroke="#1d1d1d" stroke-width="8">
      <rect width="80" height="80" rx="8" stroke="none"/>
      <rect x="4" y="4" width="72" height="72" rx="4" fill="none"/>
    </g>
    <g id="Profil" transform="translate(79 816)">
      <g id="Group_268" data-name="Group 268" transform="translate(-24 -24)" clip-path="url(#clip-path)">
        <path id="Path_1159" data-name="Path 1159" d="M11.6,43.9v.6h0v.2h0V42.8a21.5,21.5,0,0,1,.2-3.3,21.452,21.452,0,0,1,1.9-6.3,12.6,12.6,0,0,1,1.7-2.8l1.9-2.2,1.6-1.4,1.3-1,1.2-.5,1.1-.2h1.2a4.2,4.2,0,0,1,1.8.6A12.2,12.2,0,0,1,28,27.6L30.3,30l1.6,2a23.1,23.1,0,0,1,1.7,2.5,14.3,14.3,0,0,1,1.3,2.6l.4,1.3" fill="none" stroke="#171612" stroke-linecap="round" stroke-linejoin="round" stroke-width="4.2"/>
        <path id="Path_1160" data-name="Path 1160" d="M12.1,45.7l-.2.3q0-.2,2.7-.5a38.9,38.9,0,0,1,5.2-.3h4.5l3.4-.3,3-.8,3.4-.9a11.1,11.1,0,0,1,3-.3h1.5" fill="none" stroke="#171612" stroke-linecap="round" stroke-linejoin="round" stroke-width="2.95"/>
        <path id="Path_1161" data-name="Path 1161" d="M22.6,11.3v-.2a1.4,1.4,0,0,1,0-.8,2.3,2.3,0,0,1,.4-.8l.3-.6V8.4a.7.7,0,0,0-.1-.6L23,7.4l-.3-.2h-.3L21.2,7a3.6,3.6,0,0,0-1.7.1l-1.4.7A4.9,4.9,0,0,0,16.9,9a4.8,4.8,0,0,0-.7,1.9,6.6,6.6,0,0,0,0,2.2,11.3,11.3,0,0,0,.6,2.2A14.2,14.2,0,0,0,18,17.6a7.1,7.1,0,0,0,1.4,1.7l1.1.9a2.1,2.1,0,0,0,1.1.3h1.2a4,4,0,0,0,1.5-.5,7.1,7.1,0,0,0,1.8-1.4,10.9,10.9,0,0,0,1.6-2.2l1-2a14.7,14.7,0,0,0,.7-2.2,16.1,16.1,0,0,0,.5-2.8,13.6,13.6,0,0,0,0-2.3,5.4,5.4,0,0,0-.6-1.9l-.8-1.4-.8-1a2.6,2.6,0,0,0-1.4-.7,3.3,3.3,0,0,0-1.5,0l-1,.4" fill="none" stroke="#171612" stroke-linecap="round" stroke-linejoin="round" stroke-width="2.5"/>
      </g>
    </g>
    <g id="Profil-Focus" transform="translate(79 816)" opacity="0">
      <g id="Group_269" data-name="Group 269" transform="translate(-24 -24)" clip-path="url(#clip-path)">
        <path id="Path_1162" data-name="Path 1162" d="M11.6,43.9v.6h0v.2h0V42.8a21.6,21.6,0,0,1,.2-3.3,21.453,21.453,0,0,1,1.9-6.3,12.6,12.6,0,0,1,1.7-2.8l1.9-2.2,1.6-1.4,1.3-1,1.2-.5,1.1-.2h1.2a4.2,4.2,0,0,1,1.8.6A12.1,12.1,0,0,1,28,27.6L30.3,30l1.6,2a23.1,23.1,0,0,1,1.7,2.5,14.3,14.3,0,0,1,1.3,2.6l.4,1.3" fill="none" stroke="#eb9c00" stroke-linecap="round" stroke-linejoin="round" stroke-width="4.2"/>
        <path id="Path_1163" data-name="Path 1163" d="M12.1,45.7l-.2.3q0-.2,2.7-.5a38.9,38.9,0,0,1,5.2-.3h4.5l3.4-.3,3-.8,3.4-.9a11.1,11.1,0,0,1,3-.3h1.5" fill="none" stroke="#eb9c00" stroke-linecap="round" stroke-linejoin="round" stroke-width="2.95"/>
        <path id="Path_1164" data-name="Path 1164" d="M22.6,11.3v-.2a1.4,1.4,0,0,1,0-.8,2.3,2.3,0,0,1,.4-.8l.3-.6V8.4a.7.7,0,0,0-.1-.6L23,7.4l-.3-.2h-.3L21.2,7a3.6,3.6,0,0,0-1.7.1l-1.4.7A5,5,0,0,0,16.9,9a4.8,4.8,0,0,0-.7,1.9,6.6,6.6,0,0,0,0,2.2,11.3,11.3,0,0,0,.6,2.2A14.3,14.3,0,0,0,18,17.6a7,7,0,0,0,1.4,1.7l1.1.9a2.1,2.1,0,0,0,1.1.3h1.2a4,4,0,0,0,1.4-.5A7.1,7.1,0,0,0,26,18.6a10.9,10.9,0,0,0,1.6-2.2l1-2a14.6,14.6,0,0,0,.7-2.2,16,16,0,0,0,.5-2.8,13.5,13.5,0,0,0,0-2.3,5.4,5.4,0,0,0-.6-1.9l-.8-1.4-.8-1a2.6,2.6,0,0,0-1.4-.7,3.3,3.3,0,0,0-1.5,0l-1,.4" fill="none" stroke="#eb9c00" stroke-linecap="round" stroke-linejoin="round" stroke-width="2.5"/>
      </g>
    </g>
  </g>
</svg>
