<svg xmlns="http://www.w3.org/2000/svg" xmlns:xlink="http://www.w3.org/1999/xlink" width="24" height="24" viewBox="0 0 24 24">
  <defs>
    <clipPath id="clip-path">
      <rect id="Rectangle_374" data-name="Rectangle 374" width="24" height="24" fill="none"/>
    </clipPath>
  </defs>
  <g id="Close" transform="translate(12 12)">
    <g id="Close-2" data-name="Close" transform="translate(-12 -12)" clip-path="url(#clip-path)">
      <path id="Path_1364" data-name="Path 1364" d="M3.4,3.8l-.2.3h0v.5Q3,4.8,5.8,7.7L10,12.4l2.7,3,1.6,1.7,2,2.6,1.6,2" fill="none" stroke="#1d1d1d" stroke-linecap="round" stroke-linejoin="round" stroke-width="4.31"/>
      <path id="Path_1365" data-name="Path 1365" d="M2.6,22.1l-.5.4c-.2,0-.1-.3.3-1l1-1.7a14.1,14.1,0,0,1,1.9-2.2l4.4-4.3L13.9,9l2.3-2.5a38,38,0,0,1,3.1-2.8L22,1.5" fill="none" stroke="#1d1d1d" stroke-linecap="round" stroke-linejoin="round" stroke-width="3"/>
    </g>
  </g>
</svg>
