<svg xmlns="http://www.w3.org/2000/svg" xmlns:xlink="http://www.w3.org/1999/xlink" width="87.934" height="85.286" viewBox="0 0 87.934 85.286"><defs><clipPath id="a"><rect width="47.972" height="74.812" fill="none"/></clipPath></defs><g transform="translate(43.967 42.643) rotate(49)"><g transform="translate(-23.986 -37.406)" clip-path="url(#a)"><path d="M11.174,53.952A10.171,10.171,0,0,1,10.1,55.844q-.378-.038-2.82-10.541T3.472,26.91Q2.091,19,1.466,14.06t-.738-7Q.615,5,.482,4.012T.2,2.2a4.223,4.223,0,0,0-.151-.719c0,.057.019.076.038.019s-.019-.038-.076.038A14.551,14.551,0,0,1,.634,0,7.052,7.052,0,0,1,1.92,1.987,24.241,24.241,0,0,0,3.207,4.22" transform="translate(1.921 1.93)" fill="none" stroke="#75c2eb" stroke-linecap="round" stroke-linejoin="round" stroke-width="3.851"/><path d="M.908,2.119,0,0,.095.208q.719.814,4.561,4.5T12.868,11.9a92.35,92.35,0,0,0,9.5,6.586q5.128,3.1,7.91,4.693T34.2,25.528q1.135.776,2.8,4.22-1.022.492-1.022.416t.019-.057L35.9,30.07l-.473-.322-.757-.53" transform="translate(2.271 6.093)" fill="none" stroke="#75c2eb" stroke-linecap="round" stroke-linejoin="round" stroke-width="2.647"/><path d="M.568.515,0,.761Q.492-.053.568,0L.624.06h.416A62.735,62.735,0,0,1,7.967,3.372Q14.458,6.684,21.479,9.56q7,2.876,13.777,5.109.549.189-.719-.984a11.805,11.805,0,0,0-1.457-1.249" transform="translate(11.468 57.79)" fill="none" stroke="#75c2eb" stroke-linecap="round" stroke-linejoin="round" stroke-width="2.155"/><path d="M1.175,1.079.835.3.7,0Q-.055,1.419.248,1.079q-.757.852.795,10.9T3.919,27.1q1.325,5.072,2.119,7.418A5.244,5.244,0,0,1,5.49,39.1l-.208-.189-.416-.416" transform="translate(39.227 34.744)" fill="none" stroke="#75c2eb" stroke-linecap="round" stroke-linejoin="round" stroke-width="1.951"/></g></g></svg>