<svg xmlns="http://www.w3.org/2000/svg" xmlns:xlink="http://www.w3.org/1999/xlink" width="66.423" height="76.042" viewBox="0 0 66.423 76.042"><defs><clipPath id="a"><rect width="66.423" height="76.042" fill="none"/></clipPath></defs><g transform="translate(33.211 38.021)"><g transform="translate(-33.211 -38.021)" clip-path="url(#a)"><path d="M15.183,210.027a2.439,2.439,0,0,1-2.006.53,4.484,4.484,0,0,1-1.646-.643,2.819,2.819,0,0,1-.795-.719.738.738,0,0,1-.132-.492q-.057-.17.871.4a8.345,8.345,0,0,1,1.457,1.1l5.753,5.545,8.629,8.289q3.425,3.274,6.188,6.094a25.282,25.282,0,0,0,6.037,4.561q.568-.662-1.949-3.368a91.315,91.315,0,0,0-8.421-7.532q-5.885-4.845-10.465-8.837a81.864,81.864,0,0,1-9.1-9.462q.208-.114,4.182,3.52t9.121,8.213q5.166,4.561,9.348,8.7l6.34,6.264,3.16,3.16a15.914,15.914,0,0,0,3.52,2.4q.4-.795-3.614-5.261a68.869,68.869,0,0,0-7.286-7.153q-3.274-2.668-5.355-4.3l-5.28-4.144q-3.2-2.479-9.083-7.456.095-.17,3.86,3.368t6.85,6.075a22.873,22.873,0,0,0,5.45,3.52,25.662,25.662,0,0,0,2.971,1.117" transform="translate(-7.783 -166.597)" fill="none" stroke="#8b75eb" stroke-linecap="round" stroke-linejoin="round" stroke-width="3.628"/><path d="M16.849,49.9a19.013,19.013,0,0,0-.738,3.047q-.378-.87,1.4-5.185a61.975,61.975,0,0,1,4.712-9.008q2.933-4.674,5.185-9.083a63.642,63.642,0,0,0,3.558-8.232q1.325-3.8,3.066-9.443,1.022.587.7.662.492,1.1-1.627,5.6T27.579,29.618q-3.425,6.85-5.3,10.351a71.129,71.129,0,0,1-4.069,6.7A24.873,24.873,0,0,0,14.9,54.333q.435.492,1.306-1t1.23-1.987" transform="translate(-12.08 -9.729)" fill="none" stroke="#8b75eb" stroke-linecap="round" stroke-linejoin="round" stroke-width="3.834"/><path d="M125.595,8.633a3.378,3.378,0,0,0-1.476-.624,6.283,6.283,0,0,0-1.476-.208L122,7.857q-.208.038-.095-.019t-.246.227q-.416-.341,4.409,3.387t9.594,7.967q4.769,4.239,7.324,6.358t4.371,3.86a58.179,58.179,0,0,0,7.91,5.564q.36.151,0-.795a14.4,14.4,0,0,0-2.593-3.368,62,62,0,0,0-6.6-5.923q-4.371-3.5-9.329-7.57a76.447,76.447,0,0,0-13.758-8.478q-.265-.132.227.095a20.473,20.473,0,0,1,2.763,2.271l3.8,3.425q1.514,1.381,5.015,4.466t5.355,4.769l5.791,5.28a86.881,86.881,0,0,0,6.737,5.677,30.758,30.758,0,0,0,4.617,2.933,21.233,21.233,0,0,1,2.82,1.533,7.021,7.021,0,0,1,1.381,1.154" transform="translate(-98.609 -6.324)" fill="none" stroke="#8b75eb" stroke-linecap="round" stroke-linejoin="round" stroke-width="2.935"/><path d="M183.438,185.856q-.114-.568.114.984.208-.719,3.066-6.15a73.764,73.764,0,0,1,5.81-9.462q2.971-4.031,5.337-6.926t3.8-4.769q1.438-1.873,2.365-3.368t2.971-5.393L213.129,139q.511.246-2.384,3.785t-4.6,5.488a33.759,33.759,0,0,0-2.63,3.35q-.946,1.419-2.082,3.558t-3.539,6.264q-2.4,4.107-2.8,4.617" transform="translate(-148.694 -112.696)" fill="none" stroke="#8b75eb" stroke-linecap="round" stroke-linejoin="round" stroke-width="3.813"/></g></g></svg>