<svg xmlns="http://www.w3.org/2000/svg" xmlns:xlink="http://www.w3.org/1999/xlink" width="24" height="24" viewBox="0 0 24 24">
  <defs>
    <clipPath id="clip-path">
      <rect id="Rectangle_452" data-name="Rectangle 452" width="24" height="24" fill="none"/>
    </clipPath>
  </defs>
  <g id="LogOut" transform="translate(12 12)">
    <g id="Group_381" data-name="Group 381" transform="translate(-12 -12)" clip-path="url(#clip-path)">
      <path id="Path_1884" data-name="Path 1884" d="M12,11.2V13h0a18.7,18.7,0,0,0,0-2.5q0-2.9,0-4.6a9.7,9.7,0,0,1,.7-3.3c.3,0,.4.1.4.2v.4" fill="none" stroke="#1d1d1d" stroke-linecap="round" stroke-linejoin="round" stroke-width="2"/>
      <path id="Path_1885" data-name="Path 1885" d="M4.5,9.6q0,.5.3-1.5H4.1l-.4.3-.2.3L2.6,9.8a6,6,0,0,0-.9,2.7q-.2,1.7-.3,2.7A4.3,4.3,0,0,0,2,17.4a9.4,9.4,0,0,0,1.5,2.2,5.5,5.5,0,0,0,3,1.5,14.2,14.2,0,0,0,3.9.3,14.1,14.1,0,0,0,3.8-.9,17.3,17.3,0,0,0,3.5-1.7,13.3,13.3,0,0,0,2.6-2.2A7.3,7.3,0,0,0,22,13.9a8,8,0,0,0,.5-2.3,2.3,2.3,0,0,0-.2-1.3l-.8-.7a2.4,2.4,0,0,0-1.2-.5H18.9l-.9.3" fill="none" stroke="#1d1d1d" stroke-linecap="round" stroke-linejoin="round" stroke-width="2"/>
    </g>
  </g>
</svg>
