<svg xmlns="http://www.w3.org/2000/svg" width="12" height="10" viewBox="0 0 12 10">
  <g id="Polygon_1" data-name="Polygon 1" transform="translate(12 10) rotate(180)" fill="#f0f0f0">
    <path d="M 8.467620849609375 8.999995231628418 L 3.5323805809021 8.999995231628418 C 3.006210565567017 8.999995231628418 2.74854040145874 8.645225524902344 2.662180423736572 8.492695808410645 C 2.575810432434082 8.340165138244629 2.404170513153076 7.936685562133789 2.674880504608154 7.4855055809021 L 5.142500400543213 3.372805595397949 C 5.405420303344727 2.934615612030029 5.829760551452637 2.887305498123169 6.000000476837158 2.887305498123169 C 6.17024040222168 2.887305498123169 6.594570636749268 2.934605598449707 6.857490539550781 3.372795581817627 L 9.32512092590332 7.4855055809021 C 9.595820426940918 7.936685562133789 9.424180030822754 8.340165138244629 9.337820053100586 8.492695808410645 C 9.251460075378418 8.645225524902344 8.993780136108398 8.999995231628418 8.467620849609375 8.999995231628418 Z" stroke="none"/>
    <path d="M 6.000000476837158 3.887305736541748 C 5.999998569488525 3.887305736541748 5.999996662139893 3.887305736541748 6.000000476837158 3.887295722961426 L 3.532380104064941 7.999985694885254 C 3.532378196716309 7.999989032745361 3.532376289367676 7.999991893768311 3.532374382019043 7.999995231628418 C 3.532376289367676 7.999995231628418 3.532378196716309 7.999995231628418 3.532380104064941 7.999995231628418 L 8.467620849609375 7.999995231628418 C 8.467623710632324 7.999995231628418 8.46762752532959 7.999995231628418 8.467630386352539 7.999995231628418 L 6.000002384185791 3.887305736541748 C 6.000001907348633 3.887305736541748 6.000001430511475 3.887305736541748 6.000000476837158 3.887305736541748 M 5.999999046325684 1.887303352355957 C 6.663290500640869 1.887303352355957 7.32658052444458 2.210970878601074 7.714980602264404 2.858305931091309 L 10.18261051177979 6.971005439758301 C 10.98243045806885 8.304055213928223 10.02221012115479 9.999995231628418 8.467620849609375 9.999995231628418 L 3.532380104064941 9.999995231628418 C 1.977790832519531 9.999995231628418 1.017570495605469 8.304055213928223 1.817390441894531 6.971005439758301 L 4.28501033782959 2.858305931091309 C 4.673415660858154 2.210970878601074 5.336708068847656 1.887303352355957 5.999999046325684 1.887303352355957 Z" stroke="none" fill="#1d1d1d"/>
  </g>
</svg>
