<svg xmlns="http://www.w3.org/2000/svg" xmlns:xlink="http://www.w3.org/1999/xlink" width="24" height="24" viewBox="0 0 24 24">
  <defs>
    <clipPath id="clip-path">
      <rect id="Rectangle_395" data-name="Rectangle 395" width="24" height="24" fill="none"/>
    </clipPath>
  </defs>
  <g id="Profil" transform="translate(12 12)">
    <g id="Profil-2" data-name="Profil" transform="translate(-12 -12)" clip-path="url(#clip-path)">
      <path id="Path_1473" data-name="Path 1473" d="M11.6,34.5v.3h0v.1h0v-.95a10.75,10.75,0,0,1,.1-1.65,10.726,10.726,0,0,1,.95-3.15,6.3,6.3,0,0,1,.85-1.4l.95-1.1.8-.7.65-.5.6-.25.55-.1h.6a2.1,2.1,0,0,1,.9.3,6.1,6.1,0,0,1,1.25.95l1.15,1.2.8,1a11.55,11.55,0,0,1,.85,1.25,7.15,7.15,0,0,1,.65,1.3l.2.65" transform="translate(-5.799 -12.55)" fill="none" stroke="#171612" stroke-linecap="round" stroke-linejoin="round" stroke-width="2.1"/>
      <path id="Path_1474" data-name="Path 1474" d="M12,44.3l-.1.15q0-.1,1.35-.25a19.45,19.45,0,0,1,2.6-.15H18.1l1.7-.15,1.5-.4,1.7-.45a5.55,5.55,0,0,1,1.5-.15h.75" transform="translate(-5.95 -21.446)" fill="none" stroke="#171612" stroke-linecap="round" stroke-linejoin="round" stroke-width="1.475"/>
      <path id="Path_1475" data-name="Path 1475" d="M19.354,6.657v-.1a.7.7,0,0,1,0-.4,1.15,1.15,0,0,1,.2-.4l.15-.3v-.25a.35.35,0,0,0-.05-.3l-.1-.2-.15-.1h-.15l-.6-.1a1.8,1.8,0,0,0-.85.05l-.7.35a2.45,2.45,0,0,0-.6.6,2.4,2.4,0,0,0-.35.95,3.3,3.3,0,0,0,0,1.1,5.65,5.65,0,0,0,.3,1.1,7.1,7.1,0,0,0,.6,1.15,3.55,3.55,0,0,0,.7.85l.55.45a1.05,1.05,0,0,0,.55.15h.6a2,2,0,0,0,.75-.25,3.55,3.55,0,0,0,.9-.7,5.45,5.45,0,0,0,.8-1.1l.5-1a7.35,7.35,0,0,0,.35-1.1,8.05,8.05,0,0,0,.25-1.4,6.8,6.8,0,0,0,0-1.15,2.7,2.7,0,0,0-.3-.95l-.4-.7-.4-.5a1.3,1.3,0,0,0-.7-.35,1.65,1.65,0,0,0-.75,0l-.5.2" transform="translate(-8.054 -1.007)" fill="none" stroke="#171612" stroke-linecap="round" stroke-linejoin="round" stroke-width="1.25"/>
    </g>
  </g>
</svg>
