<svg xmlns="http://www.w3.org/2000/svg" xmlns:xlink="http://www.w3.org/1999/xlink" width="73.33" height="74.556" viewBox="0 0 73.33 74.556"><defs><clipPath id="a"><rect width="73.33" height="74.556" fill="none"/></clipPath></defs><g transform="translate(36.665 37.278)"><g transform="translate(-36.665 -37.278)" clip-path="url(#a)"><path d="M10.411,145.185q.057-.095-.927,1.154.341.435,5.015,4.409a86.482,86.482,0,0,1,9.329,9.386q4.655,5.393,7.115,8.213t3.842,4.2q1.381,1.381,3.879,3.709t4.561,4.107l3.425,2.952a4.528,4.528,0,0,1,1.665,2.517,8.447,8.447,0,0,1-2.157-1.609l-5.7-4.977q-3.993-3.482-7.1-6.6a49.881,49.881,0,0,1-5-5.772q-1.892-2.63-3.331-4.92t-3.274-4.977a74.827,74.827,0,0,0-6.756-7.853q-4.9-5.166-9.689-9.822-.341.189,1.1,2.517L8.14,144.58" transform="translate(-4.261 -112.939)" fill="none" stroke="#75c2eb" stroke-linecap="round" stroke-linejoin="round" stroke-width="1.629"/><path d="M7.119,35.569a13.226,13.226,0,0,0-1.344.606L5.7,36.079q.095-.511,3.368-4.466t6.056-6.945q2.782-2.99,4.163-4.39T23.3,15.925q2.611-2.971,4.277-4.958a20.025,20.025,0,0,1,2.839-2.9,11.108,11.108,0,0,1,2.025-1.325,3.159,3.159,0,0,0,1-.606l.17-.246a.53.53,0,0,0,.038-.151l.057-.3q.038-.17.038-.076t-.057-.36q-.057-.454,0-.019l-.341.473a1.919,1.919,0,0,0-.208.341c.019-.019.038-.019.038,0a1.552,1.552,0,0,0,.019.284q.038.265.095.227t-.132-.019q-.189.019,1.665,3.217a52.344,52.344,0,0,0,4.807,6.756,85.241,85.241,0,0,0,7.532,7.853q4.6,4.3,8,7.248t5.6,4.75q2.2,1.8,4.031,3.614a24.336,24.336,0,0,1,2.858,3.312q1.022,1.495,4.277,5.507.606.076.738-1.571t.132-1.8" transform="translate(-4.621 -3.871)" fill="none" stroke="#75c2eb" stroke-linecap="round" stroke-linejoin="round" stroke-width="2.167"/><path d="M239.187,256.573a25.97,25.97,0,0,1,2.5-3.671,55.824,55.824,0,0,1,6.926-7.816q4.144-3.936,6.321-5.829a53.2,53.2,0,0,0,3.879-3.747,64.36,64.36,0,0,0,4.6-5.791q2.876-3.955,3.028-4.22" transform="translate(-193.902 -182.827)" fill="none" stroke="#75c2eb" stroke-linecap="round" stroke-linejoin="round" stroke-width="1.612"/></g></g></svg>