<svg xmlns="http://www.w3.org/2000/svg" xmlns:xlink="http://www.w3.org/1999/xlink" width="24" height="24" viewBox="0 0 24 24"><defs><clipPath id="a"><rect width="24" height="24" fill="none"/></clipPath></defs><g transform="translate(12 12)"><g transform="translate(-12 -12)" clip-path="url(#a)"><path d="M11.4,9.8h-.2V9.6l-.3-.2h-.7l-.4.2-.5.3a2,2,0,0,0-.6.9,3.6,3.6,0,0,0-.3,1c0,.2-.1.5-.1.7v.9a2.1,2.1,0,0,0,.3,1,2.4,2.4,0,0,0,.8.8l1.1.5a2.5,2.5,0,0,0,1.3,0l1-.3.9-.6a4.6,4.6,0,0,0,1-1,4.2,4.2,0,0,0,.8-2.3,1.7,1.7,0,0,0-.3-1.1,3.4,3.4,0,0,0-1-.9L13,9H11.6a2.1,2.1,0,0,0-1,.4l-.6.5" fill="none" stroke="#1d1d1d" stroke-linecap="round" stroke-linejoin="round" stroke-width="2"/><path d="M9.7,3.6h0a20.4,20.4,0,0,1,.1-2.2v.3h.6l1.2-.2h3.1a2.3,2.3,0,0,1-.1.6l-.2,1.1a1.6,1.6,0,0,0,0,.6V4" fill="none" stroke="#1d1d1d" stroke-linecap="round" stroke-linejoin="round" stroke-width="3"/><path d="M18.4,7.2h.2l2-.9-.2.2.4.5.7,1.1.6,1,.3.6v.2h.1v.2h0v.4h0l-.6.2-1,.3-.6.3v.2" fill="none" stroke="#1d1d1d" stroke-linecap="round" stroke-linejoin="round" stroke-width="3"/><path d="M19.1,17.3h.2l1.5,1.8-.2-.2-.4.5-.8,1-.8.9-.4.5V22h-.5l-.2.2H17l-.4-.6-.6-1-.4-.5h-.2" fill="none" stroke="#1d1d1d" stroke-linecap="round" stroke-linejoin="round" stroke-width="3"/><path d="M8.5,20.2H8.3L6.8,22.4v-.3l-.6-.3L5,21.1l-1-.7L3.4,20H2.9l-.2-.2H2.4l.5-.5.8-.8.4-.6v-.2" fill="none" stroke="#1d1d1d" stroke-linecap="round" stroke-linejoin="round" stroke-width="3"/><path d="M4,12.2H3.6L1,11.3h.3a1.655,1.655,0,0,0,.1-.8,7,7,0,0,1,.2-1.6l.3-1.4A4.9,4.9,0,0,0,2,6.7V5.9h.2V5.2h.2l.7.3,1.2.6.8.2h.3" fill="none" stroke="#1d1d1d" stroke-linecap="round" stroke-linejoin="round" stroke-width="3"/><path d="M5.7,6.3h0V6.1L6,5.7l.4-.4L6.8,5l.6-.4.7-.4L8.5,4h.9" fill="none" stroke="#1d1d1d" stroke-linecap="round" stroke-linejoin="round" stroke-width="3"/><path d="M14.9,3.5h0l.4.2.7.4.7.3L17,5h.3l.3.4.5.8.3.5" fill="none" stroke="#1d1d1d" stroke-linecap="round" stroke-linejoin="round" stroke-width="3"/><path d="M18.9,17h.2l.2-.2.4-.4.3-.5.3-.6.2-.6a3.5,3.5,0,0,0,.1-.7V11.6" fill="none" stroke="#1d1d1d" stroke-linecap="round" stroke-linejoin="round" stroke-width="3"/><path d="M8.7,20H9l.5.2.7.3.7.2h2.6l.6-.2.5-.4.4-.4" fill="none" stroke="#1d1d1d" stroke-linecap="round" stroke-linejoin="round" stroke-width="3"/><path d="M4.1,12.2h0a1.1,1.1,0,0,1-.1.4v.7A6.5,6.5,0,0,0,4,14c0,.2,0,.5,0,.7a3,3,0,0,0,.1.6V16h.1l.2.2H5" fill="none" stroke="#1d1d1d" stroke-linecap="round" stroke-linejoin="round" stroke-width="3"/></g></g></svg>