<svg xmlns="http://www.w3.org/2000/svg" xmlns:xlink="http://www.w3.org/1999/xlink" width="75.582" height="73.72" viewBox="0 0 75.582 73.72"><defs><clipPath id="a"><rect width="75.582" height="73.72" fill="none"/></clipPath></defs><g transform="translate(37.791 36.86)"><g transform="translate(-37.791 -36.86)" clip-path="url(#a)"><path d="M35.957,126.531a4.523,4.523,0,0,1-1.1,1.325l-.643.511H34.16c-.038.019-.038,0,0-.076s.095-.076.114.038-.719.114-2.271.038-6.283-3.217-14.231-9.386q-.038,1.836.454,1.7.057,2.044,17.334,12.471t42.162,29.067a64.507,64.507,0,0,1-4.882-4.977q-4.523-4.826-10.105-9.9t-11.487-9.632q-5.9-4.561-12.092-8.762T12.7,112.3l16.388,10.351q16.426,10.389,25.15,16.275T67.674,148.2a55.807,55.807,0,0,1,8.932,8.118q-1.817-.549-16.369-13.36T44.908,129.218" transform="translate(-10.297 -91.048)" fill="none" stroke="#eb5a00" stroke-linecap="round" stroke-linejoin="round" stroke-width="4.807"/><path d="M35.546,68.459a19.075,19.075,0,0,1-1.1,2.082q-.454.719-.606.662a3.274,3.274,0,0,0-.719-.076q-.568-.038.246.265l-7.57-2.46q1.836-.87,13.814-3.122t21.138-4.731L84.332,54.7q.189.265-6.661.814t-16.634,2.2q-9.8,1.646-16.653,3.236a44.376,44.376,0,0,0-12.565,4.92q-.057,1.325,7.1.719a93.532,93.532,0,0,0,11.96-1.665q4.807-1.06,12.584-3.16a60.84,60.84,0,0,0,17.05-8.175,1.609,1.609,0,0,0-1.211-.341q-.643.076-3.085.227a34.536,34.536,0,0,0-5.734.908q-3.293.776-11.2,1.93T38.668,58.978q.871.87,6,2.365a27.6,27.6,0,0,0,12.206.322q7.078-1.173,8.667-1.495" transform="translate(-20.918 -43.157)" fill="none" stroke="#eb5a00" stroke-linecap="round" stroke-linejoin="round" stroke-width="4.966"/><path d="M338.2,78.012a7.681,7.681,0,0,0,.133,2.347q-.719-.946-1.76-15.215T335.191,43.06a98.687,98.687,0,0,0-1.93-15.574A133.054,133.054,0,0,1,330.989,10.7q-.927,1.533.227,7.418t2.2,13.133a107.418,107.418,0,0,1,1.135,11.695q.114,4.447-.416,14.136h.038q.4,2.5-4.069-41.273.208-.681,1.968,8.024a197.219,197.219,0,0,1,2.839,19.738q1.079,11.014,2.252,19.813a68.517,68.517,0,0,0,3.993,15.991q.322-1.173-2.138-12.83t-3.6-21.838q-1.135-10.2-1.627-19.7-.435-1.173.057,5.166t4.807,45.247a5.622,5.622,0,0,0,.132-.643,5.848,5.848,0,0,0,.095-1.306" transform="translate(-267.632 -8.675)" fill="none" stroke="#eb5a00" stroke-linecap="round" stroke-linejoin="round" stroke-width="4.063"/></g></g></svg>