<svg xmlns="http://www.w3.org/2000/svg" xmlns:xlink="http://www.w3.org/1999/xlink" width="46.782" height="47.545" viewBox="0 0 46.782 47.545"><defs><clipPath id="a"><rect width="46.782" height="47.545" fill="none"/></clipPath></defs><g transform="translate(23.391 23.773)"><g transform="translate(-23.391 -23.773)" clip-path="url(#a)"><path d="M20.67,14.186l-.229-.217.024.024-.325-.313-.253-.241.024.024a2.046,2.046,0,0,0-1.588.505,11.6,11.6,0,0,0-2.117,1.973,15.951,15.951,0,0,0-1.78,2.382,24.9,24.9,0,0,0-1.54,3.428,16.829,16.829,0,0,0-1.095,4.667q-.192,2.334-.192,3.6a20.5,20.5,0,0,0,.65,4.066,39.83,39.83,0,0,0,1.985,6.075,35.5,35.5,0,0,0,3.585,6.556A32.043,32.043,0,0,0,21.945,51.8q1.9,1.816,3.1,2.8a8.743,8.743,0,0,0,3.5,1.516,10.421,10.421,0,0,0,5.473-.457,42.772,42.772,0,0,0,4.74-1.72q1.564-.722,4.21-2.189a24.624,24.624,0,0,0,4.836-3.476q2.177-2.021,3.416-3.2a12.974,12.974,0,0,0,2.454-3.645,15.518,15.518,0,0,0,1.516-5.052q.3-2.586.4-4.114a16.206,16.206,0,0,0-.409-4.03,15.031,15.031,0,0,0-2.334-5.245,32.564,32.564,0,0,0-4.066-4.98,35.534,35.534,0,0,0-4.307-3.729,15.41,15.41,0,0,0-4.728-2.262,13.122,13.122,0,0,0-5.906-.241,42.416,42.416,0,0,0-6.929,1.828,21.336,21.336,0,0,0-6.46,3.525l-3.9,3.152" transform="translate(-10.205 -10.169)" fill="none" stroke="#eb9c00" stroke-linecap="round" stroke-linejoin="round" stroke-width="2.796"/></g></g></svg>