<svg xmlns="http://www.w3.org/2000/svg" xmlns:xlink="http://www.w3.org/1999/xlink" width="48.842" height="41.38" viewBox="0 0 48.842 41.38"><defs><clipPath id="a"><rect width="48.842" height="41.38" fill="none"/></clipPath></defs><g transform="translate(24.421 20.69)"><g transform="translate(-24.421 -20.69)" clip-path="url(#a)"><path d="M17.305,21.312l-.434.472a2.63,2.63,0,0,1-.645-.683,4.928,4.928,0,0,0-.919-.931,4.692,4.692,0,0,0-.956-.521q-.534-.223-1.5.509a5.981,5.981,0,0,0-1.688,2.222A16.881,16.881,0,0,0,10.106,25.1a11.606,11.606,0,0,0-.4,2.582,12.7,12.7,0,0,0,.161,2.669,11.057,11.057,0,0,0,1.1,3.053A21.112,21.112,0,0,0,14.45,37.87q2.582,2.731,4.766,4.754t3.513,3.227a12.625,12.625,0,0,0,2.234,1.7,10.041,10.041,0,0,0,1.688.757,6.293,6.293,0,0,0,1.688.3,6.529,6.529,0,0,0,2.011-.261,7.153,7.153,0,0,0,2.358-1.254,12.832,12.832,0,0,0,2.482-2.582,15.59,15.59,0,0,0,2-3.612,21.15,21.15,0,0,0,1.1-3.575,31.662,31.662,0,0,0,.484-3.463,20.9,20.9,0,0,0-.124-4.257,27.121,27.121,0,0,0-.794-4.183q-.509-1.787-1.13-3.612A19.624,19.624,0,0,0,35.1,18.234a17.725,17.725,0,0,0-2.321-3.165q-1.328-1.427-2.284-2.321A19.908,19.908,0,0,0,28.625,11.2a6.924,6.924,0,0,0-2.433-1.03,18.768,18.768,0,0,0-2.631-.484,14.808,14.808,0,0,0-2.334-.025,7.336,7.336,0,0,0-2.371.546,8.056,8.056,0,0,0-2.371,1.626,7.457,7.457,0,0,0-1.775,2.4q-.534,1.216-.745,1.812" transform="translate(-8.493 -8.428)" fill="none" stroke="#75c2eb" stroke-linecap="round" stroke-linejoin="round" stroke-width="2.418"/><path d="M211.217,41.177l-.223.236q-.174.509-.112.36a2.536,2.536,0,0,0,.05.335q-.012-.1.161.174a4.494,4.494,0,0,0,.732.819,3.173,3.173,0,0,0,2.408.31q1.837-.223,2.929-.459a18.022,18.022,0,0,0,2.259-.658,8.828,8.828,0,0,0,2.495-1.5q1.328-1.08,2.048-1.75a7.038,7.038,0,0,0,1.341-1.812,19.565,19.565,0,0,0,.918-1.849,9.606,9.606,0,0,0,.484-1.452,12.379,12.379,0,0,0,.273-2,12.527,12.527,0,0,0-.112-2.669A14.037,14.037,0,0,0,225.69,25.7a38.263,38.263,0,0,0-2.023-3.885q-1.055-1.75-1.688-2.619a23.214,23.214,0,0,0-1.825-2.11A16.844,16.844,0,0,0,217.808,15a9.718,9.718,0,0,0-2.284-1.266,7.224,7.224,0,0,0-2.172-.459,3.94,3.94,0,0,0-2.147.571,11.519,11.519,0,0,0-2.073,1.5,9.317,9.317,0,0,0-1.9,2.656,19.275,19.275,0,0,0-1.44,3.587q-.521,1.812-.708,2.805l-.285,1.527" transform="translate(-179.38 -11.623)" fill="none" stroke="#75c2eb" stroke-linecap="round" stroke-linejoin="round" stroke-width="2.41"/></g></g></svg>