<svg xmlns="http://www.w3.org/2000/svg" xmlns:xlink="http://www.w3.org/1999/xlink" width="94.013" height="82.61" viewBox="0 0 94.013 82.61"><defs><clipPath id="a"><rect width="78.112" height="56.587" fill="none"/></clipPath></defs><g transform="matrix(0.921, 0.391, -0.391, 0.921, 47.007, 41.305)"><g transform="translate(-39.056 -28.294)" clip-path="url(#a)"><path d="M12.816,148.907q-.1.059-1.022-.9T5.7,141a12.2,12.2,0,0,0,1.986,2.752,49.9,49.9,0,0,0,5.112,5.249l4.778,4.286,2.418,2.123q.767.668,2.556,2.458t2.831,2.929l1.573,1.73,1.612,1.809a11.128,11.128,0,0,0,2.6,2.084q1.219-.767-1.71-3.028t-4.974-3.637q-2.025-1.376-3.067-2.222t-1.848-1.573l-1.553-1.317a22.744,22.744,0,0,1-2.2-2.222,25.994,25.994,0,0,1-2.143-2.635q-.688-1.022-1.239-1.907t-1.809-2.674a34.8,34.8,0,0,0-2.261-2.89q-.983-1.1-1.691-1.75A15.459,15.459,0,0,0,4.2,138.9q-.433.157-.354.826a8.668,8.668,0,0,0,.138.9" transform="translate(-3.084 -111.591)" fill="none" stroke="#8b75eb" stroke-linecap="round" stroke-linejoin="round" stroke-width="1.526"/><path d="M11.975,58.988a1.553,1.553,0,0,0-.275.609q.138-.2.767-1.416a15.552,15.552,0,0,1,1.514-2.359,16.029,16.029,0,0,1,2.988-2.713q2.1-1.573,3.48-2.713,1.376-1.16,2.064-1.809l1.828-1.769q1.121-1.121,2.851-3.087t2.792-3.244a12.229,12.229,0,0,1,2.123-2.045q1.062-.767,2.635-2.143l-.295.315q.295-.236-3.264,3.46t-5.643,5.6Q23.477,47.6,22.2,49.02a25.4,25.4,0,0,0-2.635,3.618,41.9,41.9,0,0,1-2.4,3.539q-1.042,1.337-1.258,1.553" transform="translate(-9.4 -29.163)" fill="none" stroke="#8b75eb" stroke-linecap="round" stroke-linejoin="round" stroke-width="1.956"/><path d="M115.21,74.556l.374.177q.177-.236,2.477-3.912t3.736-5.682q1.435-2.005,2.418-3.283t2.084-2.792q1.1-1.514,2.182-2.87a16.69,16.69,0,0,1,2.163-2.261,14.725,14.725,0,0,1,1.868-1.4,6.272,6.272,0,0,1,1.553-.688,4.621,4.621,0,0,0,1.18-.472l.747-.511a1.219,1.219,0,0,0,.433-.865,1.337,1.337,0,0,0-.177-.963l-.275-.393-.216.039a.845.845,0,0,0-.295.138l-.216.157-.256.177-.118.059v.039q.02.059-.55.157l-.983.118q-.413.02-.472-.216a4.014,4.014,0,0,0-.236-.629,4.719,4.719,0,0,0-.57-.944,8.309,8.309,0,0,1-.57-.865,24.135,24.135,0,0,0-2.6-2.418q-2.438-2.123-4.443-4.011A38.607,38.607,0,0,1,121.6,37.5a27.617,27.617,0,0,0-3.283-3.047q-2.438-2.025-3.755-3.028l-1.927-1.494a3.46,3.46,0,0,0-1.18-.668,3.185,3.185,0,0,0-.885-.157.963.963,0,0,0-.57.2q.393.374,2.241,1.946t4.994,3.932q3.126,2.4,5.387,4.325t3.657,3.244q1.4,1.317,2.969,3.008t3.342,3.736a23.416,23.416,0,0,0,3.2,3.146l1.612,1.258" transform="translate(-88.373 -23.379)" fill="none" stroke="#8b75eb" stroke-linecap="round" stroke-linejoin="round" stroke-width="1.514"/><path d="M178.519,204.464l-.629-.393q-.059-.256,1.337.413a13.747,13.747,0,0,1,3.441,2.733q2.025,2.064,2.929,3.146t1.534,1.887q.629.806,2.654,3.165a12.133,12.133,0,0,0-1.219-1.927,43.751,43.751,0,0,0-2.753-3.618,31.98,31.98,0,0,0-2.988-3.146q-1.514-1.376-2.418-2.123a3.5,3.5,0,0,1-1.2-1.828q.315-.1,1.75,1.278a51.325,51.325,0,0,1,3.755,4.168q2.32,2.811,3.853,4.719t2.5,2.89a10.38,10.38,0,0,0,1.475,1.317l.9.649q.413.315.708-.295a2.084,2.084,0,0,0,.275-.885" transform="translate(-142.914 -162.901)" fill="none" stroke="#8b75eb" stroke-linecap="round" stroke-linejoin="round" stroke-width="1.266"/><path d="M265,152.813a5.389,5.389,0,0,0,.472.963,6.518,6.518,0,0,0,1.258-2.379q.9-2.222,1.848-4.03.924-1.809,1.711-3.028a18.513,18.513,0,0,1,1.986-2.536q1.219-1.317,3.028-2.988t4.817-4.778q3.008-3.106,4.7-4.778t2.949-2.949a10.875,10.875,0,0,0,2.182-4.011h0l-.157.1" transform="translate(-212.899 -98.255)" fill="none" stroke="#8b75eb" stroke-linecap="round" stroke-linejoin="round" stroke-width="2.117"/><path d="M173.675,21.485l-.275.59.079.059q.138-.315,3.047-4.227t4.542-5.977q1.652-2.045,2.477-3.146a17.8,17.8,0,0,0,1.317-1.946q.492-.845.786-1.3l.315-.433h.354l.472.039h.1q.216.275.177.256h-.039v.1a.649.649,0,0,0,.177.354h.059a1.652,1.652,0,0,0,.374-.275,2.516,2.516,0,0,0,.413-.452,1.338,1.338,0,0,1,.295-.315l.334-.216q.2-.118,1.022.315a8.827,8.827,0,0,1,1.77,1.258l1.514,1.376,2.438,2.32,3.795,3.657,3.323,3.2q1.357,1.3,2.831,2.556t3.952,3.146q2.477,1.887,4.109,3.323A22.355,22.355,0,0,1,216.1,28.5q0,.039-.079.079l-.157.059" transform="translate(-139.308 -3.673)" fill="none" stroke="#8b75eb" stroke-linecap="round" stroke-linejoin="round" stroke-width="1.738"/></g></g></svg>